HWT Etta-EastStreamer.ufo
<glyph name="space" format="2">
  <advance width="160"/>
  <unicode hex="0020"/>
  <outline>
    <contour>
      <point x="-5" y="-213" type="line"/>
      <point x="165" y="-213" type="line"/>
      <point x="165" y="920" type="line"/>
      <point x="-5" y="920" type="line"/>
    </contour>
  </outline>
</glyph>
<glyph name="numbersign" format="2">
  <advance width="542"/>
  <unicode hex="0023"/>
  <outline>
    <contour>
      <point x="-5" y="-213" type="line"/>
      <point x="547" y="-213" type="line"/>
      <point x="547" y="920" type="line"/>
      <point x="-5" y="920" type="line"/>
    </contour>
  </outline>
</glyph>
<glyph name="percent" format="2">
  <advance width="601"/>
  <unicode hex="0025"/>
  <outline>
    <contour>
      <point x="-5" y="-213" type="line"/>
      <point x="606" y="-213" type="line"/>
      <point x="606" y="920" type="line"/>
      <point x="-5" y="920" type="line"/>
    </contour>
  </outline>
</glyph>
<glyph name="two" format="2">
  <advance width="457"/>
  <unicode hex="0032"/>
  <outline>
    <contour>
      <point x="-5" y="-213" type="line"/>
      <point x="462" y="-213" type="line"/>
      <point x="462" y="920" type="line"/>
      <point x="-5" y="920" type="line"/>
    </contour>
  </outline>
</glyph>
<glyph name="E" format="2">
  <advance width="424"/>
  <unicode hex="0045"/>
  <outline>
    <contour>
      <point x="-5" y="-213" type="line"/>
      <point x="429" y="-213" type="line"/>
      <point x="429" y="920" type="line"/>
      <point x="-5" y="920" type="line"/>
    </contour>
  </outline>
</glyph>
<glyph name="L" format="2">
  <advance width="332"/>
  <unicode hex="004C"/>
  <outline>
    <contour>
      <point x="-5" y="-213" type="line"/>
      <point x="337" y="-213" type="line"/>
      <point x="337" y="920" type="line"/>
      <point x="-5" y="920" type="line"/>
    </contour>
  </outline>
</glyph>
<glyph name="Z" format="2">
  <advance width="468"/>
  <unicode hex="005A"/>
  <outline>
    <contour>
      <point x="-5" y="-213" type="line"/>
      <point x="473" y="-213" type="line"/>
      <point x="473" y="920" type="line"/>
      <point x="-5" y="920" type="line"/>
    </contour>
  </outline>
</glyph>
<glyph name="backslash" format="2">
  <advance width="301"/>
  <unicode hex="005C"/>
  <outline>
    <contour>
      <point x="-5" y="-213" type="line"/>
      <point x="306" y="-213" type="line"/>
      <point x="306" y="920" type="line"/>
      <point x="-5" y="920" type="line"/>
    </contour>
  </outline>
</glyph>
<glyph name="b" format="2">
  <advance width="443"/>
  <unicode hex="0062"/>
  <outline>
    <contour>
      <point x="-5" y="-213" type="line"/>
      <point x="448" y="-213" type="line"/>
      <point x="448" y="920" type="line"/>
      <point x="-5" y="920" type="line"/>
    </contour>
  </outline>
</glyph>
<glyph name="x" format="2">
  <advance width="500"/>
  <unicode hex="0078"/>
  <outline>
    <contour>
      <point x="-5" y="-213" type="line"/>
      <point x="505" y="-213" type="line"/>
      <point x="505" y="920" type="line"/>
      <point x="-5" y="920" type="line"/>
    </contour>
  </outline>
</glyph>
<glyph name="section" format="2">
  <advance width="445"/>
  <unicode hex="00A7"/>
  <outline>
    <contour>
      <point x="-5" y="-213" type="line"/>
      <point x="450" y="-213" type="line"/>
      <point x="450" y="920" type="line"/>
      <point x="-5" y="920" type="line"/>
    </contour>
  </outline>
</glyph>
<glyph name="dieresis" format="2">
  <advance width="350"/>
  <unicode hex="00A8"/>
  <outline>
    <contour>
      <point x="-5" y="-213" type="line"/>
      <point x="355" y="-213" type="line"/>
      <point x="355" y="920" type="line"/>
      <point x="-5" y="920" type="line"/>
    </contour>
  </outline>
</glyph>
<glyph name="degree" format="2">
  <advance width="320"/>
  <unicode hex="00B0"/>
  <outline>
    <contour>
      <point x="-5" y="-213" type="line"/>
      <point x="325" y="-213" type="line"/>
      <point x="325" y="920" type="line"/>
      <point x="-5" y="920" type="line"/>
    </contour>
  </outline>
</glyph>
<glyph name="threesuperior" format="2">
  <advance width="268"/>
  <unicode hex="00B3"/>
  <outline>
    <contour>
      <point x="-5" y="-213" type="line"/>
      <point x="273" y="-213" type="line"/>
      <point x="273" y="920" type="line"/>
      <point x="-5" y="920" type="line"/>
    </contour>
  </outline>
</glyph>
<glyph name="onesuperior" format="2">
  <advance width="184"/>
  <unicode hex="00B9"/>
  <outline>
    <contour>
      <point x="-5" y="-213" type="line"/>
      <point x="189" y="-213" type="line"/>
      <point x="189" y="920" type="line"/>
      <point x="-5" y="920" type="line"/>
    </contour>
  </outline>
</glyph>
<glyph name="Ocircumflex" format="2">
  <advance width="452"/>
  <unicode hex="00D4"/>
  <outline>
    <contour>
      <point x="-5" y="-213" type="line"/>
      <point x="457" y="-213" type="line"/>
      <point x="457" y="920" type="line"/>
      <point x="-5" y="920" type="line"/>
    </contour>
  </outline>
</glyph>
<glyph name="germandbls" format="2">
  <advance width="454"/>
  <unicode hex="00DF"/>
  <outline>
    <contour>
      <point x="-5" y="-213" type="line"/>
      <point x="459" y="-213" type="line"/>
      <point x="459" y="920" type="line"/>
      <point x="-5" y="920" type="line"/>
    </contour>
  </outline>
</glyph>
<glyph name="ae" format="2">
  <advance width="727"/>
  <unicode hex="00E6"/>
  <outline>
    <contour>
      <point x="-5" y="-213" type="line"/>
      <point x="732" y="-213" type="line"/>
      <point x="732" y="920" type="line"/>
      <point x="-5" y="920" type="line"/>
    </contour>
  </outline>
</glyph>
<glyph name="ugrave" format="2">
  <advance width="440"/>
  <unicode hex="00F9"/>
  <outline>
    <contour>
      <point x="-5" y="-213" type="line"/>
      <point x="445" y="-213" type="line"/>
      <point x="445" y="920" type="line"/>
      <point x="-5" y="920" type="line"/>
    </contour>
  </outline>
</glyph>
<glyph name="ydieresis" format="2">
  <advance width="481"/>
  <unicode hex="00FF"/>
  <outline>
    <contour>
      <point x="-5" y="-213" type="line"/>
      <point x="486" y="-213" type="line"/>
      <point x="486" y="920" type="line"/>
      <point x="-5" y="920" type="line"/>
    </contour>
  </outline>
</glyph>
<glyph name="rcommaaccent" format="2">
  <advance width="455"/>
  <unicode hex="0157"/>
  <outline>
    <contour>
      <point x="-5" y="-213" type="line"/>
      <point x="460" y="-213" type="line"/>
      <point x="460" y="920" type="line"/>
      <point x="-5" y="920" type="line"/>
    </contour>
  </outline>
</glyph>
<glyph name="rcaron" format="2">
  <advance width="455"/>
  <unicode hex="0159"/>
  <outline>
    <contour>
      <point x="-5" y="-213" type="line"/>
      <point x="460" y="-213" type="line"/>
      <point x="460" y="920" type="line"/>
      <point x="-5" y="920" type="line"/>
    </contour>
  </outline>
</glyph>
<glyph name="Umacron" format="2">
  <advance width="440"/>
  <unicode hex="016A"/>
  <outline>
    <contour>
      <point x="-5" y="-213" type="line"/>
      <point x="445" y="-213" type="line"/>
      <point x="445" y="920" type="line"/>
      <point x="-5" y="920" type="line"/>
    </contour>
  </outline>
</glyph>
<glyph name="dotaccentcomb" format="2">
	<advance width="0"/>
	<unicode hex="0307"/>
	<anchor x="100" y="700" name="_top"/>
	<anchor x="100" y="880" name="top"/>
	<outline>
		<contour>
			<point x="80" y="760" type="curve" smooth="yes"/>
			<point x="120" y="760" type="line" smooth="yes"/>
			<point x="146" y="760"/>
			<point x="160" y="774"/>
			<point x="160" y="800" type="curve" smooth="yes"/>
			<point x="160" y="840" type="line" smooth="yes"/>
			<point x="160" y="866"/>
			<point x="146" y="880"/>
			<point x="120" y="880" type="curve" smooth="yes"/>
			<point x="80" y="880" type="line" smooth="yes"/>
			<point x="54" y="880"/>
			<point x="40" y="866"/>
			<point x="40" y="840" type="curve" smooth="yes"/>
			<point x="40" y="800" type="line" smooth="yes"/>
			<point x="40" y="774"/>
			<point x="54" y="760"/>
		</contour>
	</outline>
</glyph>
<glyph name="caroncomb" format="2">
	<advance width="0"/>
	<unicode hex="030C"/>
	<anchor x="151" y="700" name="_top"/>
	<anchor x="151" y="770" name="bottom"/>
	<anchor x="151" y="880" name="top"/>
	<outline>
		<contour>
			<point x="151" y="740" type="curve" smooth="yes"/>
			<point x="210" y="740"/>
			<point x="204" y="830"/>
			<point x="264" y="830" type="curve" smooth="yes"/>
			<point x="272" y="830" type="line"/>
			<point x="272" y="880" type="line"/>
			<point x="262" y="880" type="line" smooth="yes"/>
			<point x="217" y="880"/>
			<point x="179" y="856"/>
			<point x="163" y="816" type="curve" smooth="yes"/>
			<point x="158" y="804"/>
			<point x="156" y="799"/>
			<point x="151" y="799" type="curve" smooth="yes"/>
			<point x="146" y="799"/>
			<point x="144" y="804"/>
			<point x="139" y="816" type="curve" smooth="yes"/>
			<point x="123" y="856"/>
			<point x="85" y="880"/>
			<point x="40" y="880" type="curve" smooth="yes"/>
			<point x="30" y="880" type="line"/>
			<point x="30" y="830" type="line"/>
			<point x="38" y="830" type="line" smooth="yes"/>
			<point x="98" y="830"/>
			<point x="92" y="740"/>
		</contour>
	</outline>
</glyph>
<glyph name="wgrave" format="2">
  <advance width="600"/>
  <unicode hex="1E81"/>
  <outline>
    <contour>
      <point x="-5" y="-213" type="line"/>
      <point x="605" y="-213" type="line"/>
      <point x="605" y="920" type="line"/>
      <point x="-5" y="920" type="line"/>
    </contour>
  </outline>
</glyph>
<glyph name="quotesinglbase" format="2">
  <advance width="230"/>
  <unicode hex="201A"/>
  <outline>
    <contour>
      <point x="-5" y="-213" type="line"/>
      <point x="235" y="-213" type="line"/>
      <point x="235" y="920" type="line"/>
      <point x="-5" y="920" type="line"/>
    </contour>
  </outline>
</glyph>
<glyph name="ellipsis" format="2">
  <advance width="690"/>
  <unicode hex="2026"/>
  <outline>
    <contour>
      <point x="-5" y="-213" type="line"/>
      <point x="695" y="-213" type="line"/>
      <point x="695" y="920" type="line"/>
      <point x="-5" y="920" type="line"/>
    </contour>
  </outline>
</glyph>
<glyph name="perthousand" format="2">
  <advance width="833"/>
  <unicode hex="2030"/>
  <outline>
    <contour>
      <point x="-5" y="-213" type="line"/>
      <point x="838" y="-213" type="line"/>
      <point x="838" y="920" type="line"/>
      <point x="-5" y="920" type="line"/>
    </contour>
  </outline>
</glyph>
<glyph name="guilsinglleft" format="2">
  <advance width="408"/>
  <unicode hex="2039"/>
  <outline>
    <contour>
      <point x="-5" y="-213" type="line"/>
      <point x="413" y="-213" type="line"/>
      <point x="413" y="920" type="line"/>
      <point x="-5" y="920" type="line"/>
    </contour>
  </outline>
</glyph>
<glyph name="X.ss01" format="2">
  <advance width="486"/>
  <outline>
    <contour>
      <point x="-5" y="-213" type="line"/>
      <point x="491" y="-213" type="line"/>
      <point x="491" y="920" type="line"/>
      <point x="-5" y="920" type="line"/>
    </contour>
  </outline>
</glyph>
<glyph name="banner1.right" format="2">
  <advance width="472"/>
  <outline>
    <contour>
      <point x="1" y="-213" type="line"/>
      <point x="11" y="-213" type="line"/>
      <point x="454" y="353" type="line"/>
      <point x="11" y="920" type="line"/>
      <point x="1" y="920" type="line"/>
    </contour>
  </outline>
</glyph>
<glyph name="banner2.left" format="2">
  <advance width="236"/>
  <outline>
    <contour>
      <point x="241.0" y="-213.0" type="line"/>
      <point x="241.0" y="920" type="line"/>
      <point x="124.0" y="920" type="line"/>
      <point x="68.0" y="778"/>
      <point x="24.0" y="621"/>
      <point x="24.0" y="353" type="curve" smooth="yes"/>
      <point x="24.0" y="84"/>
      <point x="68.0" y="-71"/>
      <point x="124.0" y="-213.0" type="curve"/>
    </contour>
  </outline>
</glyph>
<glyph name="banner3.right" format="2">
  <advance width="332"/>
  <outline>
    <contour>
      <point x="0" y="-212" type="line"/>
      <point x="49" y="-212" type="line"/>
      <point x="88" y="-66" type="line"/>
      <point x="136" y="-66"/>
      <point x="159" y="-37"/>
      <point x="159" y="55" type="curve" smooth="yes"/>
      <point x="159" y="101"/>
      <point x="162" y="159"/>
      <point x="212" y="159" type="curve"/>
      <point x="212" y="213" type="line"/>
      <point x="281" y="213"/>
      <point x="313" y="297"/>
      <point x="313" y="354" type="curve" smooth="yes"/>
      <point x="313" y="409"/>
      <point x="281" y="494"/>
      <point x="212" y="494" type="curve"/>
      <point x="212" y="548" type="line"/>
      <point x="162" y="548"/>
      <point x="159" y="606"/>
      <point x="159" y="652" type="curve" smooth="yes"/>
      <point x="159" y="744"/>
      <point x="136" y="773"/>
      <point x="88" y="773" type="curve"/>
      <point x="49" y="920" type="line"/>
      <point x="0" y="920" type="line"/>
    </contour>
  </outline>
</glyph>
<glyph name="banner5.left" format="2">
  <advance width="227"/>
  <outline>
    <contour>
      <point x="231" y="-213" type="line"/>
      <point x="231" y="920" type="line"/>
      <point x="142" y="920" type="line" smooth="yes"/>
      <point x="-48" y="920"/>
      <point x="183" y="470"/>
      <point x="24" y="353" type="curve"/>
      <point x="183" y="236"/>
      <point x="-48" y="-213"/>
      <point x="142" y="-213" type="curve" smooth="yes"/>
    </contour>
  </outline>
</glyph>
<glyph name="banner5.right" format="2">
  <advance width="227"/>
  <outline>
    <contour>
      <point x="0" y="-213" type="line"/>
      <point x="89" y="-213" type="line" smooth="yes"/>
      <point x="279" y="-213"/>
      <point x="48" y="236"/>
      <point x="207" y="353" type="curve"/>
      <point x="48" y="470"/>
      <point x="279" y="920"/>
      <point x="89" y="920" type="curve" smooth="yes"/>
      <point x="0" y="920" type="line"/>
    </contour>
  </outline>
</glyph>
<glyph name="one.1" format="2">
  <advance width="546"/>
  <outline>
    <contour>
      <point x="551" y="-229" type="line"/>
      <point x="551" y="920" type="line"/>
      <point x="-5" y="920" type="line"/>
      <point x="-5" y="-229" type="line"/>
    </contour>
  </outline>
</glyph>
